<svg width="1024" height="1024" viewBox="0 0 1024 1024" xmlns="http://www.w3.org/2000/svg">
  <!-- Background rounded square -->
  <defs>
    <linearGradient id="bgGradient" x1="0" y1="0" x2="1" y2="1">
      <stop offset="0%" stop-color="#1E88E5"/>
      <stop offset="100%" stop-color="#43A047"/>
    </linearGradient>
  </defs>
  <rect x="96" y="96" width="832" height="832" rx="200" fill="url(#bgGradient)"/>

  <!-- Lens circle -->
  <circle cx="512" cy="450" r="220" fill="#FFFFFF" fill-opacity="0.96"/>
  <circle cx="512" cy="450" r="170" fill="#E3F2FD"/>

  <!-- Budget bars inside the lens -->
  <g transform="translate(392 320)">
    <rect x="0" y="120" width="40" height="120" rx="16" fill="#1E88E5"/>
    <rect x="80" y="80" width="40" height="160" rx="16" fill="#43A047"/>
    <rect x="160" y="40" width="40" height="200" rx="16" fill="#FFB300"/>
  </g>

  <!-- Shekel-like currency symbol (₪) stylized -->
  <g transform="translate(512 450) scale(1.1)">
    <path d="M-80 -60h60c44 0 80 36 80 80v120h-36v-120c0-24-20-44-44-44h-60v-36z" fill="#1565C0"/>
    <path d="M20 -60h36v120c0 44-36 80-80 80h-60v-36h60c24 0 44-20 44-44v-120z" fill="#2E7D32"/>
  </g>

  <!-- Lens handle -->
  <g transform="translate(640 640) rotate(38)">
    <rect x="0" y="0" width="260" height="70" rx="35" fill="#0D47A1" fill-opacity="0.95"/>
    <rect x="20" y="18" width="220" height="34" rx="17" fill="#1976D2"/>
  </g>

  <!-- Subtle highlight -->
  <ellipse cx="440" cy="340" rx="110" ry="60" fill="#FFFFFF" fill-opacity="0.55"/>
</svg>

